<svg id="Capa_1" enable-background="new 0 0 501 501" height="512" viewBox="0 0 501 501" width="512" xmlns="http://www.w3.org/2000/svg"><g><path d="m17.835 332.969c-8.003-24.204-12.335-50.081-12.335-76.968 0-135.028 110.267-245.16 245.295-245 135.174.159 244.705 109.788 244.705 244.999 0 26.861-4.323 52.712-12.311 76.897-1.543 4.673-6.84 6.959-11.256 4.787-61.805-30.408-138.436-48.406-221.434-48.406-83.014 0-159.659 18.005-221.471 48.425-4.382 2.156-9.66-.096-11.193-4.734z" fill="#3d4ec6"/><path d="m483.29 332.59c-32.158 97.8-124.228 168.41-232.79 168.41s-200.632-70.61-232.79-168.41c64.026-32.934 144.885-52.59 232.79-52.59s168.764 19.656 232.79 52.59z" fill="#5766ce"/><path d="m376.651 253.33 21.903-24.261c1.892-2.095 5.367-.656 5.223 2.163l-1.081 21.173c-.096 1.871 1.528 3.371 3.385 3.128l41.638-5.449c2.79-.365 4.502 2.965 2.582 5.022l-34.717 37.197c-1.206 1.292-1.039 3.341.359 4.421l32.336 24.98c2.338 1.806.932 5.549-2.017 5.369l-39.013-2.383c-1.688-.103-3.128 1.209-3.181 2.899l-1.631 51.384c-.09 2.832-3.694 3.972-5.397 1.707l-27.384-36.442c-1.133-1.508-3.361-1.608-4.625-.208l-14.736 16.323c-1.892 2.095-5.367.656-5.223-2.163l1.667-32.643c.091-1.775-1.374-3.24-3.149-3.149l-32.643 1.667c-2.819.144-4.259-3.331-2.163-5.223l24.261-21.903c1.32-1.191 1.32-3.262 0-4.454l-24.261-21.903c-2.095-1.892-.656-5.367 2.163-5.223l32.643 1.667c1.775.091 3.24-1.374 3.149-3.149l-1.667-32.643c-.144-2.819 3.331-4.259 5.223-2.163l21.903 24.261c1.191 1.318 3.262 1.318 4.453-.002zm-122.799-66.343-35.997-7.2c-2.949-.59-4.714-3.631-3.763-6.484l6.628-19.883c.873-2.62 3.705-4.036 6.325-3.162l22.885 7.628c1.493.498 2.665 1.669 3.162 3.162l6.485 19.455c1.213 3.642-1.96 7.237-5.725 6.484zm-67.255-157.15 18.342 9.171c1.408.704 3.064.704 4.472 0l21.576-10.788c2.47-1.235 3.471-4.238 2.236-6.708l-9.373-18.746c-1.345-2.69-4.743-3.592-7.246-1.924l-30.544 20.362c-3.194 2.13-2.896 6.916.537 8.633z" fill="#8c96dd"/><path d="m350.945 317.662 22.51-16.298c4.023-2.913 9.373 1.188 7.605 5.83l-55.043 144.487c-5.25 13.782-21.942 19.118-34.214 10.937-5.556-3.704-9.225-9.641-10.053-16.267l-5.954-47.628s-.738-24.079-10.356-42.586c-8.73-16.8-32.71-16.973-41.099 0-7.8 15.782-10.185 41.22-10.185 41.22l-6.124 48.995c-.828 6.625-4.498 12.563-10.053 16.267-12.272 8.181-28.964 2.845-34.214-10.937l-62.339-163.64c-9.529-25.013-11.157-52.347-4.665-78.315l12.351-49.404c5.767-23.069 28.95-37.266 52.12-31.92l14.631 3.376c2.201.508 3.788 2.428 3.872 4.685l2.353 62.722c.324 8.647 6.172 16.104 14.492 18.481l33.797 9.656c7.476 2.136 13.036 8.41 14.258 16.088l6.09 38.279c1.172 7.369 6.349 13.472 13.427 15.831l68.742 22.914c6.111 2.039 12.831 1.006 18.051-2.773zm84.05-123.616 6.946-50.448c3.244-23.556-12.98-45.37-36.473-49.041l-23.492-3.671c-8.895-1.39-17.201-5.464-23.545-11.851-17.069-17.185-39.31-26.115-63.524-25.506-9 .226-17.817-2.575-25.203-7.722-2.041-1.422-4.875-.518-5.715 1.824l-22.639 63.131c-1.832 5.108-.171 10.814 4.115 14.141l35.793 27.784c3.851 2.99 5.621 7.94 4.538 12.694l-10.674 46.84c-1.04 4.562.547 9.324 4.115 12.351l61.626 52.283c3.082 2.614 7.234 3.584 11.155 2.604l43.294-10.818c2.37-.592 4.515-1.863 6.172-3.657 18.164-19.662 29.86-44.421 33.511-70.938z" fill="#ececf1"/><path d="m351.286 217.783c-6.938-14.087 9.965-25.492 17.838-56.725 5.278-20.939 1.053-29.034 8.957-35.378 9.464-7.596 27.959-5.619 37 3.844 17.293 18.099-5.094 57.287-7.315 61.073-11.27 19.21-34.019 40.98-48.366 35.262-5.044-2.01-7.483-6.794-8.114-8.076z" fill="#fff5f5"/><path d="m319.094 461.299-.002.001c-7.496 6.107-18.521 7.164-27.29 1.318-5.556-3.704-9.225-9.641-10.053-16.267l-5.954-47.628s-.738-24.079-10.356-42.586c-4.302-8.279-12.308-12.52-20.326-12.661 16.098-3.168 43.648 1.588 49.402 12.661 9.617 18.508 10.356 42.586 10.356 42.586l5.954 47.628c.736 5.888 3.716 11.232 8.269 14.948zm-179.982-173.258c-9.529-25.013-11.157-52.347-4.665-78.314l12.351-49.404c3.424-13.695 12.985-24.263 25.038-29.472l-10.605-2.447c-23.17-5.347-46.352 8.851-52.12 31.92l-12.351 49.403c-6.492 25.967-4.864 53.301 4.665 78.314l62.339 163.641c5.251 13.782 21.942 19.118 34.214 10.937 2.413-1.609 4.469-3.638 6.092-5.963-1.046-1.505-1.932-3.167-2.62-4.974zm174.634-68.045c-3.863-3.278-5.581-8.433-4.455-13.373l11.558-50.719c1.173-5.147-.743-10.508-4.914-13.745l-38.757-30.085c-4.641-3.603-6.439-9.782-4.456-15.312l15.635-43.599c-6.675-.917-13.071-3.466-18.651-7.354-2.041-1.422-4.875-.518-5.715 1.824l-22.639 63.131c-1.832 5.108-.171 10.814 4.115 14.141l35.793 27.784c3.851 2.99 5.621 7.94 4.538 12.694l-10.674 46.84c-1.04 4.562.547 9.324 4.115 12.351l61.626 52.283c3.082 2.614 7.234 3.584 11.155 2.604l24.578-6.141zm-123.618-120.422c1.195-1.78.977-4.155-.523-5.688l-26.085-26.647c-2.367-2.418-6.453-1.478-7.525 1.731l-5.987 17.911c-.824 2.466.594 5.117 3.103 5.801l32.073 8.736c1.871.51 3.861-.232 4.944-1.844z" fill="#d3d3d8"/></g></svg>