<svg id="Capa_1" enable-background="new 0 0 501 501" height="512" viewBox="0 0 501 501" width="512" xmlns="http://www.w3.org/2000/svg"><g><path d="m399.5 440.654c-42.153 34.291-95.926 54.846-154.5 54.846-135.31 0-245-109.69-245-245s109.69-245 245-245c55.03 0 105.822 18.143 146.721 48.773 4.013 3.005 4.244 8.936.481 12.249-51.013 44.898-83.202 110.679-83.202 183.978 0 76.735 35.278 145.231 90.5 190.154z" fill="#3342ae"/><path d="m150.727 424.5h-51.727c-5.523 0-10-4.477-10-10v-121.3c0-5.523 4.477-10 10-10h51.727c5.523 0 10 4.477 10 10v121.3c0 5.523-4.477 10-10 10z" fill="#717ed6"/><path d="m181 364.5h-106.63c-2.902 0-5.194-2.462-4.987-5.356l19.617-274.644h92z" fill="#ececf1"/><path d="m141 195.775h227.115c19.194 28.708 30.385 63.219 30.385 100.344 0 50.203-6.457 95.625-39.5 128.381h-218z" fill="#8c96dd"/><path d="m141 84.5h284.193c40.233 43.651 64.807 101.956 64.807 166 0 41.159-10.15 79.948-28.083 114h-340.917z" fill="#fff5f5"/><path d="m419 309.5c0 2.761-2.239 5-5 5h-80c-2.761 0-5-2.239-5-5v-30c0-2.761 2.239-5 5-5h80c2.761 0 5 2.239 5 5z" fill="#199a8e"/><path d="m194 254.5h-80c-2.761 0-5-2.239-5-5v-30c0-2.761 2.239-5 5-5h80c2.761 0 5 2.239 5 5v30c0 2.761-2.239 5-5 5zm5 55v-30c0-2.761-2.239-5-5-5h-80c-2.761 0-5 2.239-5 5v30c0 2.761 2.239 5 5 5h80c2.761 0 5-2.239 5-5zm110-120v-30c0-2.761-2.239-5-5-5h-80c-2.761 0-5 2.239-5 5v30c0 2.761 2.239 5 5 5h80c2.761 0 5-2.239 5-5zm0 60v-30c0-2.761-2.239-5-5-5h-80c-2.761 0-5 2.239-5 5v30c0 2.761 2.239 5 5 5h80c2.761 0 5-2.239 5-5zm0 60v-30c0-2.761-2.239-5-5-5h-80c-2.761 0-5 2.239-5 5v30c0 2.761 2.239 5 5 5h80c2.761 0 5-2.239 5-5zm135-35c-2.761 0-5 2.239-5 5v30c0 2.761 2.239 5 5 5h37.556c3.493-12.94 5.952-26.305 7.283-40zm-5-115v30c0 2.761 2.239 5 5 5h39.571c-3.231-13.82-7.633-27.19-13.094-40h-26.477c-2.762 0-5 2.239-5 5zm0 60v30c0 2.761 2.239 5 5 5h45.968c.021-1.331.032-2.664.032-4 0-12.23-.896-24.251-2.626-36h-43.374c-2.762 0-5 2.239-5 5zm-20-60c0-2.761-2.239-5-5-5h-80c-2.761 0-5 2.239-5 5v30c0 2.761 2.239 5 5 5h80c2.761 0 5-2.239 5-5z" fill="#d3d3d8"/><path d="m194 194.5h-80c-2.761 0-5-2.239-5-5v-30c0-2.761 2.239-5 5-5h80c2.761 0 5 2.239 5 5v30c0 2.761-2.239 5-5 5zm220 20h-80c-2.761 0-5 2.239-5 5v30c0 2.761 2.239 5 5 5h80c2.761 0 5-2.239 5-5v-30c0-2.761-2.239-5-5-5z" fill="#93e2c6"/><path d="m274 324.5h-110c-8.284 0-15-6.716-15-15v-110c0-8.284 6.716-15 15-15h110c8.284 0 15 6.716 15 15v110c0 8.284-6.716 15-15 15z" fill="#20b7a1"/><path d="m184.022 324.5h-20.022c-8.284 0-15-6.716-15-15v-110c0-8.284 6.716-15 15-15h20.022c-8.284 0-15 6.716-15 15v110c0 8.284 6.715 15 15 15z" fill="#199a8e"/><path d="m184 334.5h-80c-2.761 0-5-2.239-5-5v-30c0-2.761 2.239-5 5-5h80c2.761 0 5 2.239 5 5v30c0 2.761-2.239 5-5 5z" fill="#ff2ea6"/><path d="m184 334.5h-46.546c-2.761 0-5-2.239-5-5v-30c0-2.761 2.239-5 5-5h46.546c2.761 0 5 2.239 5 5v30c0 2.761-2.239 5-5 5z" fill="#ff50b5"/><path d="m262.859 220.975-43.75 70c-1.311 2.097-3.571 3.413-6.042 3.518-.106.004-.213.007-.319.007-2.354 0-4.58-1.107-6-3l-26.25-35c-2.485-3.314-1.814-8.015 1.5-10.5 3.315-2.485 8.016-1.813 10.5 1.5l19.687 26.25 37.953-60.725c2.195-3.512 6.822-4.581 10.335-2.385 3.513 2.195 4.581 6.822 2.386 10.335z" fill="#fff5f5"/><path d="m289 134.5h-200c-5.523 0-10-4.477-10-10v-60c0-5.523 4.477-10 10-10h200c5.523 0 10 4.477 10 10v60c0 5.523-4.477 10-10 10z" fill="#ff2ea6"/><path d="m136.667 54.5h255.357c28.34 21.293 51.913 48.589 68.829 80h-324.186z" fill="#ff50b5"/><path d="m358.019 369.164 5.665 16.219-129.754 45.319-5.665-16.219z" fill="#ececf1"/><path d="m441.48 443.135c-46.281 16.164-96.903-8.25-113.067-54.531s8.25-96.903 54.531-113.067 96.903 8.25 113.067 54.531c16.165 46.281-8.25 96.903-54.531 113.067z" fill="#58aacb"/><path d="m457.414 435.747c-5.706 3.367-12.914-.807-12.914-7.432 0-3.014 1.57-5.826 4.166-7.357 28.688-16.93 42.472-52.202 31.249-84.871-12.828-37.342-54.031-57.35-91.307-44.33-22.505 7.86-38.599 25.825-44.972 47.033-1.101 3.663-4.407 6.217-8.232 6.217h-.063c-5.7 0-9.852-5.48-8.225-10.943 7.861-26.388 27.848-48.754 55.828-58.527 46.281-16.164 96.903 8.25 113.067 54.531 14.192 40.632-2.895 84.611-38.597 105.679z" fill="#7fbed7"/><path d="m94.023 448.023 185.774-64.884c11.048-3.859 23.132 1.969 26.99 13.017 3.859 11.048-1.969 23.132-13.017 26.99l-185.774 64.884c-11.048 3.859-23.132-1.969-26.99-13.017-3.859-11.047 1.969-23.131 13.017-26.99z" fill="#7fbed7"/><path d="m306.321 394.94c-2.335 4.982-6.596 9.056-12.2 11.014l-197.102 68.84c-5.605 1.957-11.476 1.422-16.404-1.023-3.023-10.697 2.775-22.033 13.409-25.747l185.774-64.884c10.634-3.715 22.229 1.547 26.523 11.8z" fill="#a6d2e3"/><path d="m257.055 427.853c-3.306 1.155-6.922-.589-8.076-3.895l-4.181-11.971c-1.155-3.306.589-6.922 3.895-8.076s6.922.589 8.076 3.895l4.181 11.971c1.154 3.306-.589 6.922-3.895 8.076zm-25.426-11.267c-1.155-3.306-4.77-5.05-8.076-3.895s-5.05 4.771-3.895 8.076l4.181 11.971c1.155 3.306 4.77 5.05 8.076 3.895s5.05-4.77 3.895-8.076zm-25.14 8.78c-1.155-3.306-4.77-5.05-8.076-3.895s-5.05 4.771-3.895 8.076l4.181 11.971c1.155 3.306 4.77 5.05 8.076 3.895 3.306-1.155 5.05-4.771 3.895-8.076zm-25.14 8.781c-1.155-3.306-4.77-5.05-8.076-3.895-3.306 1.155-5.05 4.77-3.895 8.076l4.181 11.971c1.155 3.306 4.77 5.05 8.076 3.895s5.05-4.771 3.895-8.076zm-25.139 8.78c-1.155-3.306-4.77-5.05-8.076-3.895s-5.05 4.771-3.895 8.076l4.181 11.971c1.155 3.306 4.77 5.05 8.076 3.895s5.05-4.771 3.895-8.076zm-25.14 8.781c-1.155-3.306-4.77-5.05-8.076-3.895s-5.05 4.77-3.895 8.076l4.181 11.971c1.155 3.306 4.77 5.05 8.076 3.895 3.306-1.154 5.05-4.77 3.895-8.076z" fill="#7fbed7"/><path d="m279.797 383.139c11.048-3.859 23.132 1.969 26.99 13.017 3.859 11.048-1.969 23.132-13.017 26.99l-17.841 6.231-13.973-40.007z" fill="#ececf1"/><path d="m306.321 394.94c-2.335 4.982-6.596 9.056-12.2 11.014l-23.505 8.209-8.659-24.792 17.841-6.231c10.634-3.715 22.229 1.547 26.523 11.8z" fill="#fff5f5"/><path d="m435.816 426.916c-37.323 13.036-78.148-6.654-91.183-43.977-13.036-37.323 6.654-78.148 43.977-91.183 37.323-13.036 78.148 6.654 91.183 43.977s-6.654 78.147-43.977 91.183z" fill="#3d4ec6"/><path d="m479.793 335.732c4.632 13.264 5.132 26.969 2.176 39.713-8.132 10.247-19.169 18.389-32.433 23.021-37.323 13.036-78.147-6.654-91.183-43.977-4.632-13.264-5.132-26.969-2.176-39.713 8.132-10.247 19.169-18.389 32.433-23.021 37.323-13.035 78.147 6.654 91.183 43.977z" fill="#5766ce"/><path d="m456.491 360.097-18.249 47.903c-1.537 4.035-6.423 5.597-10.016 3.202-1.626-1.084-2.701-2.822-2.943-4.762l-1.743-13.942s-.216-7.049-3.031-12.467c-2.556-4.918-9.575-4.968-12.031 0-2.283 4.62-2.981 12.067-2.981 12.067l-1.793 14.342c-.242 1.94-1.317 3.678-2.943 4.762-3.592 2.395-8.479.833-10.016-3.202l-18.249-47.903c-2.789-7.322-3.266-15.324-1.366-22.925l3.616-14.462c1.688-6.753 8.475-10.909 15.257-9.344l6.782 1.565c2.624.606 5.365.333 7.844-.718 6.415-2.718 13.312-2.718 19.727 0 2.48 1.051 5.22 1.323 7.844.718l6.782-1.565c6.783-1.565 13.569 2.591 15.257 9.344l3.616 14.462c1.902 7.602 1.425 15.603-1.364 22.925z" fill="#ececf1"/><path d="m401.777 408.001c.202.529.461 1.016.767 1.456-.475.681-1.077 1.275-1.784 1.746-3.592 2.395-8.479.833-10.016-3.202l-18.249-47.903c-2.789-7.322-3.266-15.324-1.366-22.925l3.616-14.462c1.688-6.753 8.475-10.909 15.257-9.344l3.104.717c-3.528 1.525-6.327 4.618-7.329 8.627l-3.616 14.462c-1.9 7.602-1.424 15.603 1.366 22.925zm32.018-1.56-1.743-13.942s-.216-7.049-3.031-12.467c-1.684-3.241-9.749-4.633-14.462-3.706 2.347.041 4.691 1.283 5.95 3.706 2.815 5.418 3.031 12.467 3.031 12.467l1.743 13.942c.242 1.939 1.317 3.677 2.943 4.762 2.567 1.711 5.794 1.402 7.989-.386-1.333-1.089-2.205-2.653-2.42-4.376z" fill="#b9b9be"/><path d="m435.453 360.766c-3.894-3.494-.084-9.118-1.527-19.752-.967-7.129-3.279-9.107-1.623-12.049 1.983-3.523 7.947-5.208 11.916-3.405 7.593 3.449 5.536 18.344 5.32 19.79-1.1 7.338-5.431 16.893-10.576 16.906-1.808.004-3.156-1.173-3.51-1.49z" fill="#fff5f5"/></g></svg>