<svg id="Capa_1" enable-background="new 0 0 501 501" height="512" viewBox="0 0 501 501" width="512" xmlns="http://www.w3.org/2000/svg"><g><path d="m490 256c0 135.31-109.69 245-245 245-56.909 0-109.286-19.403-150.876-51.955l-.132-1.482c-2.776-31.065-26.077-56.39-56.804-61.738-23.36-37.312-36.95-81.367-37.185-128.579-.672-134.922 106.742-244.424 241.653-246.224 136.842-1.825 248.344 108.555 248.344 244.978z" fill="#ff2ea6"/><path d="m476.888 213c0 106.083-85.998 192.081-192.081 192.081s-192.081-85.998-192.081-192.081 85.998-192.081 192.081-192.081 192.081 85.998 192.081 192.081z" fill="#ff50b5"/><path d="m227.588 129.345c2.929 2.929 7.677 2.929 10.607 0 2.929-2.929 2.929-7.677 0-10.607-16.571-16.571-16.571-43.533 0-60.104 2.929-2.929 2.929-7.677 0-10.607s-7.677-2.929-10.607 0c-22.42 22.42-22.42 58.898 0 81.318zm208.005 138.751c2.929-2.929 2.929-7.677 0-10.607-2.929-2.929-7.677-2.929-10.607 0-16.571 16.571-43.533 16.571-60.104 0-2.929-2.929-7.677-2.929-10.607 0-2.929 2.929-2.929 7.677 0 10.607 22.42 22.42 58.898 22.42 81.318 0z" fill="#ffc7e7"/><path d="m247.792 115.203c2.929 2.929 7.677 2.929 10.607 0 2.929-2.929 2.929-7.677 0-10.607-8.773-8.773-8.773-23.047 0-31.82 2.929-2.929 2.929-7.677 0-10.607-2.929-2.929-7.677-2.929-10.607 0-14.622 14.622-14.622 38.412 0 53.034zm173.659 132.69c2.929-2.929 2.929-7.677 0-10.607-2.929-2.929-7.677-2.929-10.607 0-8.773 8.773-23.047 8.773-31.82 0-2.929-2.929-7.677-2.929-10.607 0-2.929 2.929-2.929 7.677 0 10.607 14.622 14.621 38.412 14.621 53.034 0z" fill="#ff94d2"/><path d="m189.015 314.961-21.213-21.213 212.132-212.133 21.213 21.213z" fill="#232e7a"/><path d="m271.04 213.137c17.574 17.574 17.574 46.066 0 63.64l-162.635 162.634c-4.229 4.229-9.091 7.441-14.281 9.634-22.449-17.57-41.756-38.972-56.937-63.22 1.994-3.605 4.52-6.995 7.578-10.054l162.635-162.634c17.574-17.573 46.066-17.573 63.64 0z" fill="#b9b9be"/><path d="m277.053 220.576c11.257 17.43 9.253 40.935-6.013 56.201l-162.635 162.634c-4.229 4.229-9.092 7.44-14.281 9.634-12.368-9.68-23.783-20.523-34.078-32.364 1.523-2.203 3.265-4.3 5.226-6.261l176.777-176.777c9.597-9.597 22.45-13.953 35.004-13.067z" fill="#d3d3d8"/><path d="m89.285 394.892c-12.106-12.106-12.106-31.734 0-43.841l123.772-123.772c12.106-12.106 31.734-12.106 43.841 0 12.106 12.106 12.106 31.734 0 43.841l-123.773 123.772c-12.106 12.106-31.734 12.106-43.84 0z" fill="#ececf1"/><path d="m126.588 357.588c-12.106-12.106-12.106-31.734 0-43.841l86.469-86.469c12.106-12.106 31.734-12.106 43.841 0 12.106 12.106 12.106 31.734 0 43.841l-86.469 86.469c-12.106 12.107-31.734 12.107-43.841 0z" fill="#fff5f5"/><path d="m172.045 312.132c-7.811-7.811-7.811-20.474 0-28.284l49.497-49.497c7.81-7.81 20.474-7.81 28.284 0 7.81 7.81 7.81 20.474 0 28.284l-49.497 49.497c-7.811 7.811-20.474 7.811-28.284 0z" fill="#3342ae"/><path d="m221.542 262.635c-7.811-7.811-7.811-20.474 0-28.284 7.81-7.81 20.474-7.81 28.284 0 7.81 7.81 7.81 20.474 0 28.284-7.81 7.81-20.473 7.81-28.284 0z" fill="#5766ce"/><path d="m398.787 198.933c-30.213 4.438-62.068-4.969-85.321-28.222-39.052-39.052-39.052-102.369 0-141.421s102.369-39.052 141.421 0c23.253 23.253 32.66 55.108 28.222 85.321-20.529 3.015-40.3 12.422-56.1 28.222s-25.206 35.571-28.222 56.1z" fill="#3342ae"/><path d="m440.745 156.569c-31.242 31.242-81.895 31.242-113.137 0s-31.242-81.895 0-113.137 81.895-31.242 113.137 0 31.242 81.895 0 113.137z" fill="#58aacb"/><path d="m496.607 162.932c-5.858 5.858-15.355 5.858-21.213 0 5.858 5.858 5.858 15.355 0 21.213-5.858 5.858-15.355 5.858-21.213 0 5.858 5.858 5.858 15.355 0 21.213s-15.355 5.858-21.213 0l-28.284-28.284c5.858 5.858 5.858 15.355 0 21.213-5.858 5.858-15.355 5.858-21.213 0l-53.033-53.033c-5.858-5.858-5.858-15.355 0-21.213s15.355-5.858 21.213 0l-28.284-28.284c-5.858-5.858-5.858-15.355 0-21.213 5.858-5.858 15.355-5.858 21.213 0l-14.142-14.142c-5.858-5.858 15.355-27.071 21.213-21.213l14.142 14.142c-5.858-5.858-5.858-15.355 0-21.213s15.355-5.858 21.213 0l3.536 3.536c-4.22-4.22-5.399-10.328-3.54-15.604 16.232.57 32.323 6.054 45.852 16.452 1.313.688 2.546 1.583 3.65 2.687l53.033 53.033c5.858 5.858 5.858 15.355 0 21.213s-15.355 5.858-21.213 0l28.284 28.284c5.857 5.858 5.857 15.356-.001 21.213z" fill="#8cc5db"/><path d="m475.393 162.933c5.858 5.858 5.858 15.355 0 21.213-5.858 5.858-15.355 5.858-21.213 0l-123.743-123.744c-5.858-5.858-4.649-14.752 1.209-20.61s14.146-6.461 20.004-.603zm-123.743-38.891c-5.858-5.858-15.355-5.858-21.213 0s-5.858 15.355 0 21.213l60.104 60.104c5.858 5.858 8.284-1.213 14.142-7.071 5.858-5.858 12.929-8.284 7.071-14.142zm145.329-24.362-60.477-60.491c-1.104-1.104-7.397-5.438-9.336-6.676-12.245-7.817-26.153-11.971-40.166-12.463-1.859 5.276-.68 11.384 3.54 15.604l84.853 84.853c5.858 5.858 8.284-1.213 14.142-7.071 5.858-5.859 11.278-9.75 7.444-13.756z" fill="#a6d2e3"/><path d="m475.393 120.506c-5.858-5.858-5.858-15.355 0-21.213 5.858-5.858 15.355-5.858 21.213 0 5.858 5.858 5.858 15.355 0 21.213-5.857 5.858-15.355 5.858-21.213 0zm0 21.213c5.858-5.858 5.858-15.355 0-21.213-5.858-5.858-15.355-5.858-21.213 0-5.858 5.858-5.858 15.355 0 21.213 5.858 5.858 15.356 5.858 21.213 0zm-21.213 21.214c5.858-5.858 5.858-15.355 0-21.213-5.858-5.858-15.355-5.858-21.213 0-5.858 5.858-5.858 15.355 0 21.213 5.858 5.857 15.355 5.857 21.213 0zm-21.213 21.213c5.858-5.858 5.858-15.355 0-21.213-5.858-5.858-15.355-5.858-21.213 0-5.858 5.858-5.858 15.355 0 21.213 5.858 5.858 15.355 5.858 21.213 0zm-21.213 21.213c5.858-5.858 5.858-15.355 0-21.213-5.858-5.858-15.355-5.858-21.213 0-5.858 5.858-5.858 15.355 0 21.213 5.857 5.858 15.355 5.858 21.213 0zm21.213-106.066c5.858-5.858 5.858-15.355 0-21.213-5.858-5.858-15.355-5.858-21.213 0-5.858 5.858-5.858 15.355 0 21.213 5.858 5.858 15.355 5.858 21.213 0zm-42.426 21.213c-5.858-5.858-5.858-15.355 0-21.213 5.858-5.858 15.355-5.858 21.213 0 5.858 5.858 5.858 15.355 0 21.213-5.858 5.858-15.356 5.858-21.213 0zm-21.214 21.213c-5.858-5.858-5.858-15.355 0-21.213 5.858-5.858 15.355-5.858 21.213 0 5.858 5.858 5.858 15.355 0 21.213-5.857 5.858-15.355 5.858-21.213 0z" fill="#c0dfeb"/><path d="m454.18 99.293c-5.858-5.858-5.858-15.355 0-21.213 5.858-5.858 15.355-5.858 21.213 0 5.858 5.858 5.858 15.355 0 21.213-5.857 5.858-15.355 5.858-21.213 0zm0 21.213c5.858-5.858 5.858-15.355 0-21.213-5.858-5.858-15.355-5.858-21.213 0-5.858 5.858-5.858 15.355 0 21.213 5.858 5.858 15.355 5.858 21.213 0zm-21.213 21.213c5.858-5.858 5.858-15.355 0-21.213-5.858-5.858-15.355-5.858-21.213 0-5.858 5.858-5.858 15.355 0 21.213 5.858 5.858 15.355 5.858 21.213 0zm-21.213 21.214c5.858-5.858 5.858-15.355 0-21.213-5.858-5.858-15.355-5.858-21.213 0-5.858 5.858-5.858 15.355 0 21.213 5.857 5.857 15.355 5.857 21.213 0zm-21.213 21.213c5.858-5.858 5.858-15.355 0-21.213-5.858-5.858-15.355-5.858-21.213 0-5.858 5.858-5.858 15.355 0 21.213 5.857 5.858 15.355 5.858 21.213 0zm42.426 0c-5.858 5.858-5.858 15.355 0 21.213 5.858 5.858 15.355 5.858 21.213 0 5.858-5.858 5.858-15.355 0-21.213-5.858-5.858-15.355-5.858-21.213 0zm21.213-21.213c-5.858 5.858-5.858 15.355 0 21.213 5.858 5.858 15.355 5.858 21.213 0 5.858-5.858 5.858-15.355 0-21.213-5.857-5.858-15.355-5.858-21.213 0zm21.213-21.214c-5.858 5.858-5.858 15.355 0 21.213 5.858 5.858 15.355 5.858 21.213 0 5.858-5.858 5.858-15.355 0-21.213-5.857-5.858-15.355-5.858-21.213 0z" fill="#ececf1"/></g></svg>