<svg id="Capa_1" enable-background="new 0 0 512 512" height="512" viewBox="0 0 512 512" width="512" xmlns="http://www.w3.org/2000/svg"><g><path d="m501 256c0 135.31-109.69 245-245 245-96.673 0-180.269-55.992-220.127-137.314 15.93-32.502 24.874-69.05 24.874-107.686s-8.944-75.184-24.873-107.686c39.857-81.322 123.453-137.314 220.126-137.314 135.31 0 245 109.69 245 245z" fill="#5766ce"/><path d="m512 184.333v157.989c0 11.046-8.954 20-20 20h-100c-.006 0-.013 0-.019 0h-356.771c-15.514-32.158-24.21-68.225-24.21-106.322 0-32.411 6.294-63.351 17.725-91.667h392.472.01 70.793c11.046 0 20 8.955 20 20z" fill="#8c96dd"/><path d="m507.318 200.059-34.049 89.379c-2.868 7.528-11.985 10.442-18.688 5.974-3.034-2.023-5.039-5.266-5.491-8.885l-3.252-26.014s-.403-13.152-5.656-23.26c-4.768-9.176-17.866-9.27-22.448 0-4.26 8.62-5.563 22.514-5.563 22.514l-3.345 26.761c-.452 3.619-2.457 6.862-5.491 8.885-6.703 4.469-15.82 1.554-18.688-5.974l-34.049-89.379c-5.205-13.662-6.094-28.592-2.548-42.775l6.746-26.984c3.15-12.6 15.812-20.355 28.467-17.434l12.654 2.92c4.896 1.13 10.009.621 14.636-1.339 11.97-5.071 24.838-5.071 36.808 0 4.627 1.96 9.74 2.469 14.636 1.339l12.654-2.92c12.655-2.92 25.317 4.834 28.467 17.434l6.746 26.984c3.548 14.182 2.659 29.112-2.546 42.774z" fill="#ececf1"/><path d="m405.232 289.438c.376.987.86 1.895 1.431 2.717-.887 1.27-2.01 2.378-3.328 3.257-6.703 4.469-15.82 1.554-18.688-5.974l-34.049-89.379c-5.205-13.662-6.094-28.592-2.548-42.775l6.746-26.984c3.15-12.6 15.812-20.355 28.467-17.434l5.792 1.337c-6.583 2.845-11.806 8.618-13.676 16.098l-6.746 26.984c-3.546 14.183-2.656 29.113 2.548 42.775zm59.739-2.911-3.252-26.014s-.403-13.152-5.656-23.26c-3.143-6.048-18.191-8.646-26.983-6.915 4.38.077 8.752 2.393 11.102 6.915 5.253 10.109 5.656 23.26 5.656 23.26l3.252 26.014c.452 3.619 2.457 6.862 5.491 8.885 4.789 3.193 10.811 2.616 14.905-.72h.001c-2.486-2.03-4.114-4.949-4.516-8.165z" fill="#d3d3d8"/><path d="m468.066 201.305c-7.265-6.519-.156-17.013-2.849-36.854-1.805-13.301-6.117-16.992-3.027-22.482 3.7-6.574 14.827-9.717 22.234-6.353 14.167 6.435 10.33 34.226 9.926 36.924-2.052 13.691-10.133 31.519-19.733 31.543-3.375.01-5.89-2.185-6.551-2.778z" fill="#fff5f5"/><path d="m334.36 200.059-34.049 89.379c-2.868 7.528-11.985 10.442-18.688 5.974-3.034-2.023-5.039-5.266-5.491-8.885l-3.252-26.014s-.403-13.152-5.656-23.26c-4.768-9.176-17.866-9.27-22.448 0-4.26 8.62-5.563 22.514-5.563 22.514l-3.345 26.761c-.452 3.619-2.457 6.862-5.491 8.885-6.703 4.469-15.82 1.554-18.687-5.974l-34.049-89.379c-5.205-13.662-6.094-28.592-2.548-42.775l6.746-26.984c3.15-12.6 15.812-20.355 28.467-17.434l12.654 2.92c4.896 1.13 10.009.621 14.636-1.339 11.97-5.071 24.838-5.071 36.808 0 4.627 1.96 9.74 2.469 14.636 1.339l12.654-2.92c12.655-2.92 25.317 4.834 28.467 17.434l6.746 26.984c3.547 14.182 2.657 29.112-2.547 42.774z" fill="#fcf2b6"/><path d="m296.529 294.691c-4.095 3.337-10.117 3.914-14.906.721-3.034-2.023-5.039-5.266-5.491-8.885l-3.252-26.014s-.403-13.152-5.656-23.26c-2.35-4.522-6.722-6.838-11.102-6.915 8.792-1.73 23.841.868 26.983 6.915 5.253 10.109 5.656 23.26 5.656 23.26l3.252 26.014c.402 3.216 2.03 6.135 4.516 8.164zm-98.305-94.632c-5.205-13.662-6.094-28.591-2.548-42.775l6.746-26.984c1.87-7.48 7.092-13.253 13.676-16.098l-5.792-1.337c-12.655-2.92-25.317 4.834-28.467 17.434l-6.746 26.984c-3.546 14.183-2.656 29.113 2.548 42.775l34.049 89.379c2.868 7.528 11.985 10.442 18.687 5.974 1.318-.879 2.441-1.987 3.328-3.257-.571-.822-1.055-1.73-1.431-2.717z" fill="#ffe89c"/><path d="m295.108 201.305c-7.265-6.519-.156-17.013-2.849-36.854-1.805-13.301-6.117-16.992-3.027-22.482 3.7-6.574 14.827-9.717 22.234-6.353 14.167 6.435 10.33 34.226 9.926 36.924-2.052 13.691-10.133 31.519-19.733 31.543-3.375.01-5.89-2.185-6.551-2.778z" fill="#fff5f5"/><path d="m161.402 200.059-34.049 89.379c-2.868 7.528-11.985 10.442-18.687 5.974-3.034-2.023-5.039-5.266-5.491-8.885l-3.252-26.014s-.403-13.152-5.656-23.26c-4.768-9.176-17.866-9.27-22.448 0-4.26 8.62-5.563 22.514-5.563 22.514l-3.345 26.761c-.452 3.619-2.457 6.862-5.491 8.885-6.703 4.469-15.82 1.554-18.687-5.974l-34.051-89.38c-5.205-13.662-6.094-28.592-2.548-42.775l6.746-26.984c3.15-12.6 15.812-20.355 28.467-17.434l12.654 2.92c4.896 1.13 10.009.621 14.636-1.339 11.97-5.071 24.838-5.071 36.808 0 4.627 1.96 9.74 2.469 14.636 1.339l12.654-2.92c12.655-2.92 25.317 4.834 28.467 17.434l6.746 26.984c3.548 14.183 2.658 29.113-2.546 42.775z" fill="#ffde91"/><path d="m59.315 289.438c.376.987.86 1.895 1.431 2.717-.886 1.27-2.01 2.378-3.328 3.257-6.703 4.469-15.82 1.554-18.688-5.974l-34.048-89.379c-5.205-13.662-6.094-28.592-2.548-42.775l6.746-26.984c3.15-12.6 15.812-20.355 28.467-17.434l5.792 1.337c-6.583 2.845-11.806 8.618-13.676 16.098l-6.746 26.984c-3.546 14.183-2.656 29.113 2.548 42.775zm59.74-2.911-3.252-26.014s-.403-13.152-5.656-23.26c-3.143-6.048-18.191-8.646-26.983-6.915 4.379.077 8.752 2.393 11.102 6.915 5.253 10.109 5.656 23.26 5.656 23.26l3.252 26.014c.452 3.619 2.457 6.862 5.491 8.885 4.789 3.193 10.811 2.616 14.905-.72h.001c-2.486-2.03-4.114-4.949-4.516-8.165z" fill="#edc472"/><path d="m122.15 201.305c-7.265-6.519-.156-17.013-2.849-36.854-1.805-13.301-6.117-16.992-3.027-22.482 3.7-6.574 14.827-9.717 22.234-6.353 14.167 6.435 10.33 34.226 9.926 36.924-2.052 13.691-10.133 31.519-19.733 31.543-3.376.01-5.89-2.185-6.551-2.778z" fill="#fcf2b6"/><path d="m430.481 367.625-37.678 37.678c-1.464 1.464-3.384 2.197-5.303 2.197s-3.839-.732-5.303-2.197c-2.929-2.929-2.929-7.678 0-10.606l24.875-24.875h-399.572c-4.142 0-7.5-3.358-7.5-7.5s3.358-7.5 7.5-7.5h399.571l-24.875-24.875c-2.929-2.929-2.929-7.678 0-10.606 2.929-2.929 7.678-2.929 10.606 0l37.678 37.678c2.93 2.929 2.93 7.678.001 10.606z" fill="#fff5f5"/><path d="m75.822 369.822h-68.322c-4.142 0-7.5-3.358-7.5-7.5s3.358-7.5 7.5-7.5h68.322c-4.142 0-7.5 3.358-7.5 7.5s3.358 7.5 7.5 7.5z" fill="#ececf1"/></g></svg>