<svg id="Capa_1" enable-background="new 0 0 501 501" height="512" viewBox="0 0 501 501" width="512" xmlns="http://www.w3.org/2000/svg"><g><path d="m434.23 398.209h-364.354c-16.097 0-30.958-8.684-38.819-22.731-19.781-35.345-31.057-76.095-31.057-119.478 0-133.795 107.248-242.541 240.465-244.959 72.597-1.318 138.15 28.717 183.831 77.656.934 1.001-2.151 2.896-1.234 3.913 1.116 1.236 4.863 2.629 5.953 3.888.6.693 2.564.356 3.156 1.056 35.644 42.095 57.304 96.507 57.819 156.288.431 50.002-14.119 96.58-39.432 135.517-3.59 5.523-9.739 8.85-16.328 8.85z" fill="#3d4ec6"/><path d="m381.926 290.588c0 96.023-77.842 173.865-173.865 173.865s-173.864-77.842-173.864-173.865 77.842-173.865 173.865-173.865 173.864 77.842 173.864 173.865z" fill="#5766ce"/><path d="m248.99 393.637c.149 10.611-1.442 20.829-4.506 30.388-15.87 49.513-73.604 71.306-118.974 45.911-39.864-22.313-72.852-55.445-94.988-95.42 5.527-2.885 11.812-4.516 18.478-4.516 4.47 0 8.768.733 12.782 2.086 10.182-41.112 47.136-71.662 91.296-72.082 52.013-.494 95.183 41.623 95.912 93.633zm202.92-6.38c-7.22-10.427-19.267-17.257-32.91-17.257-1.893 0-3.755.132-5.578.386 3.999-6.738 6.077-14.751 5.476-23.284-1.387-19.688-17.316-35.615-37.004-37-23.4-1.646-42.894 16.85-42.894 39.898 0 12.412 5.653 23.503 14.525 30.84-30.918 5.009-54.525 31.828-54.525 64.16 0 .176.001.351.002.526.206 26.041 58.74 28.09 62.446 26.085 36.873-19.957 68.049-49.097 90.462-84.354zm49.09-57.257c0 16.569-13.431 30-30 30s-30-13.431-30-30 13.431-30 30-30 30 13.431 30 30z" fill="#a6d2e3"/><path d="m231.483 340.019c-15.642-11.328-34.872-18.007-55.662-18.007-44.567 0-81.965 30.688-92.218 72.086-4.014-1.353-8.312-2.086-12.782-2.086-9.019 0-17.341 2.985-24.031 8.021-5.926-8.141-11.363-16.662-16.267-25.518 5.526-2.884 11.811-4.515 18.477-4.515 4.47 0 8.768.733 12.782 2.086 10.253-41.397 47.651-72.086 92.218-72.086 31.978 0 60.266 15.8 77.483 40.019zm258.948.55c-16.569 0-30-13.432-30-30 0-3.19.498-6.264 1.421-9.148-12.095 3.868-20.852 15.201-20.852 28.579 0 16.569 13.431 30 30 30 13.378 0 24.711-8.757 28.579-20.852-2.884.922-5.958 1.421-9.148 1.421z" fill="#7fbed7"/><path d="m307.118 321.623-40.92-9.464c-8.071-1.867-13.101-9.923-11.234-17.994l65.346-282.542c1.867-8.071 9.923-13.101 17.994-11.234l40.92 9.464c8.071 1.867 13.101 9.923 11.234 17.994l-65.346 282.542c-1.866 8.071-9.923 13.101-17.994 11.234z" fill="#dbad5c"/><path d="m307.118 321.623-7.394-1.71c-8.071-1.867-13.101-9.923-11.234-17.994l65.346-282.542c1.867-8.071 9.923-13.101 17.994-11.234l7.394 1.71c8.071 1.867 13.101 9.923 11.234 17.994l-65.346 282.542c-1.866 8.071-9.923 13.101-17.994 11.234z" fill="#edc472"/><path d="m430.617 62.795c8.071 1.867 1.311 31.095-6.76 29.229 8.071 1.867 13.101 9.923 11.234 17.994-1.867 8.071-9.923 13.101-17.994 11.234 8.071 1.867 13.101 9.923 11.234 17.994s-9.923 13.101-17.994 11.234c8.071 1.867 13.101 9.923 11.234 17.994s-9.923 13.101-17.994 11.234l-87.685-20.28c-8.071-1.867-13.101-9.923-11.234-17.994s9.923-13.101 17.994-11.234c-8.071-1.867-13.101-9.923-11.234-17.994 1.867-8.071 9.923-13.101 17.994-11.234-8.071-1.867-13.101-9.923-11.234-17.994s9.923-13.101 17.994-11.234c-8.071-1.867-13.101-9.923-11.234-17.994s9.923-13.101 17.994-11.234c-8.071-1.867-13.101-9.923-11.234-17.994s9.923-13.101 17.994-11.234l87.685 20.28c8.071 1.865 1.311 31.094-6.76 29.227z" fill="#ffe89c"/><path d="m428.331 139.246c-1.867 8.071-9.923 13.101-17.994 11.234l-87.685-20.28c-8.071-1.867-13.101-9.923-11.234-17.994s9.923-13.101 17.994-11.234l87.685 20.28c8.071 1.867 13.101 9.923 11.234 17.994zm2.286-76.451-87.685-20.28c-8.071-1.867-16.127 3.163-17.994 11.234s3.163 16.127 11.234 17.994l87.685 20.28c8.071 1.867 16.128-3.163 17.994-11.234 1.867-8.071-3.163-16.127-11.234-17.994z" fill="#ffde91"/><path d="m437.377 33.566c-8.071-1.867-16.128 3.163-17.994 11.234-1.867 8.071 3.163 16.127 11.234 17.994-8.071-1.867-16.127 3.163-17.994 11.234s3.163 16.128 11.234 17.994c-8.071-1.867-16.128 3.163-17.994 11.234-1.867 8.071 3.163 16.128 11.234 17.994-8.071-1.867-16.128 3.163-17.994 11.234 1.867-8.071-3.163-16.127-11.234-17.994 8.071 1.867 16.128-3.163 17.994-11.234 1.867-8.071-3.163-16.127-11.234-17.994s-16.128 3.163-17.994 11.234 3.163 16.128 11.234 17.994c-8.071-1.867-16.127 3.163-17.994 11.234-1.867 8.071 3.163 16.128 11.234 17.994-8.071-1.867-16.128 3.163-17.994 11.234s3.163 16.127 11.234 17.994 16.128-3.163 17.994-11.234c-1.867 8.071 3.163 16.127 11.234 17.994s16.128-3.163 17.994-11.234c1.867-8.071-3.163-16.128-11.234-17.994 8.071 1.867 16.127-3.163 17.994-11.234s-3.163-16.127-11.234-17.994c8.071 1.867 16.128-3.163 17.994-11.234 1.867-8.071-3.163-16.127-11.234-17.994 8.071 1.867 16.128-3.163 17.994-11.234 1.867-8.071-3.163-16.127-11.234-17.994 8.071 1.867 16.128-3.163 17.994-11.234 1.867-8.07-3.163-16.127-11.234-17.994zm-45.034 128.149c1.867-8.071-3.163-16.128-11.234-17.994 8.071 1.867 16.127-3.163 17.994-11.234-1.867 8.071 3.163 16.127 11.234 17.994-8.071-1.867-16.128 3.162-17.994 11.234zm2.285-76.452c-8.071-1.867-13.101-9.923-11.234-17.994s9.923-13.101 17.994-11.234c-8.071-1.867-13.101-9.923-11.234-17.994 1.867-8.071 9.923-13.101 17.994-11.234s13.101 9.923 11.234 17.994-9.923 13.101-17.994 11.234c8.071 1.867 13.101 9.923 11.234 17.994-1.866 8.071-9.923 13.101-17.994 11.234z" fill="#fff5f5"/><path d="m372.16 49.275c-8.071-1.867-13.101-9.923-11.234-17.994 1.867-8.071 9.923-13.101 17.994-11.234 8.071 1.867 13.101 9.923 11.234 17.994-1.867 8.071-9.923 13.101-17.994 11.234zm11.234 17.994c1.867-8.071-3.163-16.128-11.234-17.994-8.071-1.867-16.127 3.163-17.994 11.234-1.867 8.071 3.163 16.127 11.234 17.994 8.071 1.867 16.127-3.163 17.994-11.234zm-6.76 29.229c1.867-8.071-3.163-16.128-11.234-17.994-8.071-1.867-16.127 3.163-17.994 11.234-1.867 8.071 3.163 16.127 11.234 17.994 8.071 1.867 16.127-3.163 17.994-11.234zm-6.76 29.228c1.867-8.071-3.163-16.128-11.234-17.994-8.071-1.867-16.128 3.163-17.994 11.234-1.867 8.071 3.163 16.127 11.234 17.994 8.071 1.867 16.127-3.163 17.994-11.234zm-6.76 29.229c1.867-8.071-3.163-16.128-11.234-17.994-8.071-1.867-16.128 3.163-17.994 11.234-1.867 8.071 3.163 16.127 11.234 17.994 8.071 1.867 16.127-3.163 17.994-11.234z" fill="#fcf2b6"/><path d="m217.05 314.661-39.919 13.058c-7.874 2.576-16.345-1.719-18.92-9.593l-90.159-275.63c-2.576-7.874 1.719-16.345 9.593-18.92l39.919-13.058c7.874-2.576 16.345 1.719 18.92 9.593l90.16 275.629c2.575 7.874-1.72 16.345-9.594 18.921z" fill="#20b7a1"/><path d="m217.05 314.661-13.504 4.417c-7.874 2.576-16.345-1.719-18.92-9.593l-90.159-275.629c-2.576-7.874 1.72-16.345 9.593-18.92l13.504-4.417c7.874-2.576 16.345 1.719 18.92 9.593l90.16 275.629c2.575 7.873-1.72 16.344-9.594 18.92z" fill="#24d3b5"/><path d="m226.234 143.314-85.54 27.981c-7.874 2.575-16.345-1.719-18.92-9.593-2.576-7.874 1.72-16.344 9.593-18.92-7.874 2.576-16.345-1.719-18.92-9.593-2.576-7.874 1.72-16.344 9.593-18.92-7.874 2.575-16.345-1.72-18.92-9.593-2.576-7.874 1.719-16.345 9.593-18.92-7.874 2.575-16.345-1.719-18.92-9.593s1.719-16.344 9.593-18.92c-7.874 2.576-16.344-1.719-18.92-9.593-2.576-7.874 1.719-16.344 9.593-18.92l85.541-27.983c7.874-2.575 17.201 25.938 9.327 28.513 7.874-2.575 16.345 1.719 18.92 9.593 2.576 7.874-1.719 16.344-9.593 18.92 7.874-2.576 16.345 1.719 18.92 9.593 2.576 7.874-1.72 16.344-9.593 18.92 7.874-2.575 16.345 1.719 18.92 9.593 2.576 7.874-1.719 16.344-9.593 18.92 7.874-2.576 16.345 1.719 18.92 9.593 2.575 7.876-1.72 16.347-9.594 18.922z" fill="#adebdc"/><path d="m112.714 85.755c-7.874 2.575-16.345-1.719-18.92-9.593s1.719-16.344 9.593-18.92l85.54-27.98c7.874-2.576 16.345 1.719 18.92 9.593 2.576 7.874-1.719 16.344-9.593 18.92zm113.787 10.126c-2.576-7.874-11.046-12.169-18.92-9.593l-85.54 27.981c-7.874 2.576-12.169 11.046-9.593 18.92s11.046 12.169 18.92 9.593l85.54-27.981c7.873-2.576 12.168-11.047 9.593-18.92z" fill="#93e2c6"/><path d="m170.007 19.668c-2.576-7.874 1.719-16.344 9.593-18.92 7.874-2.575 16.345 1.719 18.92 9.593 2.576 7.874-1.719 16.345-9.593 18.92 7.874-2.576 16.345 1.719 18.92 9.593 2.576 7.874-1.719 16.344-9.593 18.92s-16.345-1.719-18.92-9.593c-2.576-7.874 1.719-16.345 9.593-18.92-7.874 2.575-16.345-1.72-18.92-9.593zm65.821 104.726c-2.576-7.874-11.046-12.169-18.92-9.593 7.874-2.576 12.169-11.046 9.593-18.92-2.576-7.874-11.046-12.169-18.92-9.593s-12.169 11.046-9.593 18.92 11.046 12.169 18.92 9.593c-7.874 2.575-12.169 11.046-9.593 18.92s11.046 12.169 18.92 9.593c7.873-2.575 12.168-11.046 9.593-18.92zm-37.841-19.186c-2.576-7.874-11.046-12.169-18.92-9.593 7.874-2.576 12.169-11.046 9.593-18.92 2.576 7.874 11.046 12.169 18.92 9.593s12.169-11.046 9.593-18.92c-2.576-7.874-11.046-12.169-18.92-9.593s-12.169 11.046-9.593 18.92c-2.576-7.874-11.046-12.169-18.92-9.593 7.874-2.575 12.169-11.046 9.593-18.92s-11.046-12.169-18.92-9.593c7.874-2.576 12.169-11.046 9.593-18.92s-11.046-12.169-18.92-9.593-12.169 11.046-9.593 18.92c2.576 7.874 11.046 12.169 18.92 9.593-7.874 2.575-12.169 11.046-9.593 18.92 2.576 7.874 11.046 12.169 18.92 9.593-7.874 2.576-12.169 11.046-9.593 18.92 2.576 7.874 11.046 12.169 18.92 9.593-7.874 2.575-12.169 11.046-9.593 18.92s11.046 12.169 18.92 9.593 12.169-11.047 9.593-18.92zm-9.593 18.92c-7.874 2.576-12.169 11.046-9.593 18.92 2.576 7.874 11.046 12.169 18.92 9.593s12.169-11.046 9.593-18.92c-2.575-7.874-11.046-12.169-18.92-9.593z" fill="#fff5f5"/><path d="m131.9 47.914c-7.874 2.576-16.345-1.719-18.92-9.593-2.576-7.874 1.719-16.345 9.593-18.92 7.874-2.576 16.345 1.719 18.92 9.593 2.576 7.874-1.719 16.345-9.593 18.92zm18.92 9.594c-2.576-7.874-11.046-12.169-18.92-9.593s-12.169 11.046-9.593 18.92c2.576 7.874 11.046 12.169 18.92 9.593s12.169-11.047 9.593-18.92zm27.981 85.54c-2.576-7.874-11.046-12.169-18.92-9.593 7.874-2.575 12.169-11.046 9.593-18.92s-11.046-12.169-18.92-9.593c7.874-2.576 12.169-11.046 9.593-18.92-2.576-7.874-11.046-12.169-18.92-9.593s-12.169 11.046-9.593 18.92c2.576 7.874 11.046 12.169 18.92 9.593-7.874 2.575-12.169 11.046-9.593 18.92s11.046 12.169 18.92 9.593c-7.874 2.576-12.169 11.046-9.593 18.92 2.576 7.874 11.046 12.169 18.92 9.593 7.873-2.576 12.168-11.047 9.593-18.92z" fill="#ececf1"/><path d="m114.124 391.943c-.258-5.959-.387-11.924-.387-17.891v-75.852c0-8.284 6.716-15 15-15h226.926c8.284 0 15 6.716 15 15v71.758c0 7.333-.17 14.663-.507 21.985z" fill="#ff72c3"/><path d="m114.262 391.943c-.349-7.519-.525-15.046-.525-22.577v-71.166c0-8.284 6.716-15 15-15h38.526v108.743z" fill="#ff50b5"/><path d="m179.892 492.254c-20.304-5.583-39.552-13.712-57.381-24.024l-5.351-41.021c-2.28-17.482-3.424-35.093-3.424-52.722v-5.644h73.711v8.931c0 27.902 1.81 55.774 5.419 83.442l2.315 17.746c1.125 8.621-6.905 15.597-15.289 13.292z" fill="#ff2ea6"/><path d="m167.263 368.842h203.4v5.643c0 17.63-1.144 35.241-3.424 52.723l-5.792 44.402c-34.635 18.746-74.298 29.39-116.447 29.39-22.815 0-44.901-3.119-65.856-8.952l-8.457-64.839c-2.28-17.482-3.424-35.093-3.424-52.723z" fill="#ff50b5"/><path d="m294 460c-13.807 0-25-11.193-25-25v-90c0-13.807 11.193-25 25-25 13.807 0 25 11.193 25 25v90c0 13.807-11.193 25-25 25z" fill="#ff72c3"/><path d="m319 368.842h-50v-23.842c0-13.807 11.193-25 25-25 13.807 0 25 11.193 25 25z" fill="#ff94d2"/><path d="m282.2 48.662c0 4.142-3.358 7.5-7.5 7.5h-5v5c0 4.142-3.358 7.5-7.5 7.5s-7.5-3.358-7.5-7.5v-5h-5c-4.142 0-7.5-3.358-7.5-7.5s3.358-7.5 7.5-7.5h5v-5c0-4.142 3.358-7.5 7.5-7.5s7.5 3.358 7.5 7.5v5h5c4.142 0 7.5 3.358 7.5 7.5z" fill="#fff5f5"/><path d="m100.045 256c0 4.142-3.358 7.5-7.5 7.5h-5v5c0 4.142-3.358 7.5-7.5 7.5s-7.5-3.358-7.5-7.5v-5h-5c-4.142 0-7.5-3.358-7.5-7.5s3.358-7.5 7.5-7.5h5v-5c0-4.142 3.358-7.5 7.5-7.5s7.5 3.358 7.5 7.5v5h5c4.142 0 7.5 3.358 7.5 7.5z" fill="#97bffd"/><path d="m445.863 230.23c0 4.142-3.358 7.5-7.5 7.5h-5v5c0 4.142-3.358 7.5-7.5 7.5s-7.5-3.358-7.5-7.5v-5h-5c-4.142 0-7.5-3.358-7.5-7.5s3.358-7.5 7.5-7.5h5v-5c0-4.142 3.358-7.5 7.5-7.5s7.5 3.358 7.5 7.5v5h5c4.142 0 7.5 3.358 7.5 7.5z" fill="#2476ed"/></g></svg>